<svg width="358" height="31" viewBox="0 0 358 31" fill="none" xmlns="http://www.w3.org/2000/svg">
<path d="M2.7793 12.9277C2.7793 13.2207 2.67383 13.4727 2.46289 13.6836C2.25195 13.8945 2 14 1.70703 14H1.60156C1.30859 14 1.05664 13.8945 0.845703 13.6836C0.634766 13.4727 0.529297 13.2207 0.529297 12.9277V1.88867C0.529297 1.5957 0.634766 1.34375 0.845703 1.13281C1.05664 0.921875 1.30859 0.816406 1.60156 0.816406H4.73047C7.8125 0.816406 9.35352 2.13477 9.35352 4.77148C9.35352 7.15039 7.8125 8.33984 4.73047 8.33984H3.76367C3.48242 8.33984 3.24805 8.43359 3.06055 8.62109C2.87305 8.80859 2.7793 9.03711 2.7793 9.30664V12.9277ZM2.7793 7.0918C2.7793 7.36133 2.87305 7.5957 3.06055 7.79492C3.25977 7.98242 3.49414 8.07617 3.76367 8.07617H4.74805C6.31836 8.07617 7.10352 6.97461 7.10352 4.77148C7.10352 2.31055 6.30664 1.08008 4.71289 1.08008H3.74609C3.47656 1.08008 3.24805 1.17383 3.06055 1.36133C2.87305 1.54883 2.7793 1.77734 2.7793 2.04688V7.0918ZM13.7656 12.9277C13.7656 13.2207 13.6602 13.4727 13.4492 13.6836C13.2383 13.8945 12.9863 14 12.6934 14H12.5879C12.2949 14 12.043 13.8945 11.832 13.6836C11.6211 13.4727 11.5156 13.2207 11.5156 12.9277V1.88867C11.5156 1.5957 11.6211 1.34375 11.832 1.13281C12.043 0.921875 12.2949 0.816406 12.5879 0.816406H12.6934C12.9863 0.816406 13.2383 0.921875 13.4492 1.13281C13.6602 1.34375 13.7656 1.5957 13.7656 1.88867V12.9277ZM25.8418 13.7188C25.9355 13.7188 25.9824 13.7656 25.9824 13.8594C25.9824 13.9531 25.9355 14 25.8418 14H16.1914C16.0977 14 16.0508 13.9531 16.0508 13.8594C16.0508 13.8359 16.0566 13.7949 16.0684 13.7363C16.0918 13.666 16.1094 13.6191 16.1211 13.5957L22.5195 2.73242C22.625 2.5332 22.6777 2.33984 22.6777 2.15234C22.6895 1.95312 22.6484 1.77734 22.5547 1.625C22.4609 1.47266 22.332 1.34961 22.168 1.25586C22.0039 1.15039 21.8105 1.09766 21.5879 1.09766H16.4551C16.3613 1.09766 16.3145 1.05078 16.3145 0.957031C16.3145 0.863281 16.3613 0.816406 16.4551 0.816406H25.8418C25.9355 0.816406 25.9824 0.863281 25.9824 0.957031C25.9824 0.980469 25.9707 1.02734 25.9473 1.09766C25.9355 1.15625 25.9238 1.19727 25.9121 1.2207L19.5137 12.084C19.4082 12.2832 19.3496 12.4824 19.3379 12.6816C19.3379 12.8691 19.3848 13.0391 19.4785 13.1914C19.5723 13.3438 19.7012 13.4727 19.8652 13.5781C20.0293 13.6719 20.2227 13.7188 20.4453 13.7188H25.8418ZM37.3555 13.7188C37.4492 13.7188 37.4961 13.7656 37.4961 13.8594C37.4961 13.9531 37.4492 14 37.3555 14H27.7051C27.6113 14 27.5645 13.9531 27.5645 13.8594C27.5645 13.8359 27.5703 13.7949 27.582 13.7363C27.6055 13.666 27.623 13.6191 27.6348 13.5957L34.0332 2.73242C34.1387 2.5332 34.1914 2.33984 34.1914 2.15234C34.2031 1.95312 34.1621 1.77734 34.0684 1.625C33.9746 1.47266 33.8457 1.34961 33.6816 1.25586C33.5176 1.15039 33.3242 1.09766 33.1016 1.09766H27.9688C27.875 1.09766 27.8281 1.05078 27.8281 0.957031C27.8281 0.863281 27.875 0.816406 27.9688 0.816406H37.3555C37.4492 0.816406 37.4961 0.863281 37.4961 0.957031C37.4961 0.980469 37.4844 1.02734 37.4609 1.09766C37.4492 1.15625 37.4375 1.19727 37.4258 1.2207L31.0273 12.084C30.9219 12.2832 30.8633 12.4824 30.8516 12.6816C30.8516 12.8691 30.8984 13.0391 30.9922 13.1914C31.0859 13.3438 31.2148 13.4727 31.3789 13.5781C31.543 13.6719 31.7363 13.7188 31.959 13.7188H37.3555ZM47.3047 9.57031C47.3281 9.65234 47.2988 9.69336 47.2168 9.69336L41.7148 9.67578C41.5156 9.67578 41.3105 9.74609 41.0996 9.88672C40.9004 10.0273 40.7656 10.1914 40.6953 10.3789L39.6758 13.1035C39.6289 13.2207 39.582 13.3438 39.5352 13.4727C39.4883 13.5898 39.4414 13.707 39.3945 13.8242C39.3594 13.9297 39.2891 13.9824 39.1836 13.9824H39.0605H38.9727C38.9844 13.9473 38.9961 13.9062 39.0078 13.8594C39.0195 13.8242 39.0371 13.7832 39.0605 13.7363C39.084 13.6777 39.1074 13.6133 39.1309 13.543C39.1895 13.4023 39.2949 13.127 39.4473 12.7168C39.5996 12.2949 39.7871 11.791 40.0098 11.2051C40.2324 10.6191 40.4727 9.97461 40.7305 9.27148C41 8.56836 41.2695 7.85938 41.5391 7.14453C41.8086 6.42969 42.0664 5.73828 42.3125 5.07031C42.5703 4.40234 42.7988 3.81055 42.998 3.29492C43.1973 2.76758 43.3555 2.3457 43.4727 2.0293C43.6016 1.71289 43.666 1.54883 43.666 1.53711L43.8066 1.16797C43.8418 1.07422 43.9121 0.992188 44.0176 0.921875C44.1348 0.839844 44.2402 0.798828 44.334 0.798828H45.6523C45.8398 0.798828 46.0332 0.869141 46.2324 1.00977C46.4434 1.15039 46.584 1.31445 46.6543 1.50195L51.0664 13.1562L51.2246 13.543C51.2715 13.6719 51.3066 13.7773 51.3301 13.8594C51.3652 13.9297 51.3828 13.9707 51.3828 13.9824C51.3945 14.0059 51.3887 14.0117 51.3652 14C51.3418 13.9883 51.3184 13.9824 51.2949 13.9824H49.3262C49.2324 13.9824 49.1387 13.9531 49.0449 13.8945C48.9512 13.8242 48.8867 13.748 48.8516 13.666L48.7285 13.332L48.6406 13.1211C48.4297 12.5234 48.207 11.9316 47.9727 11.3457C47.75 10.748 47.5273 10.1504 47.3047 9.55273C47.3047 9.55273 47.3047 9.55859 47.3047 9.57031ZM41.5918 7.95312C41.4512 8.32812 41.4805 8.66797 41.6797 8.97266C41.8906 9.26562 42.2012 9.41211 42.6113 9.41211H45.6875C46.0977 9.41211 46.4023 9.26562 46.6016 8.97266C46.8125 8.66797 46.8477 8.32812 46.707 7.95312L45.1602 3.83984C45.0781 3.59375 44.9434 3.41211 44.7559 3.29492C44.5684 3.16602 44.3691 3.10156 44.1582 3.10156C43.9473 3.10156 43.748 3.16602 43.5605 3.29492C43.373 3.41211 43.2324 3.58789 43.1387 3.82227L41.5918 7.95312ZM59.3633 7.4082C59.3633 8.38086 59.4512 9.26562 59.627 10.0625C59.8145 10.8594 60.0723 11.5449 60.4004 12.1191C60.7285 12.6816 61.1211 13.1211 61.5781 13.4375C62.0469 13.7422 62.5625 13.8945 63.125 13.8945C63.6406 13.8945 64.1211 13.7598 64.5664 13.4902C64.6367 13.4434 64.6719 13.3848 64.6719 13.3145C64.6719 13.2441 64.6484 13.1797 64.6016 13.1211C64.3086 12.8281 63.9863 12.5117 63.6348 12.1719C63.5645 12.1016 63.5645 12.0312 63.6348 11.9609C63.6934 11.8906 63.752 11.8848 63.8105 11.9434C63.9863 12.0957 64.168 12.2422 64.3555 12.3828C64.543 12.5234 64.7363 12.6523 64.9355 12.7695C65.0176 12.8281 65.1055 12.8516 65.1992 12.8398C65.3047 12.8164 65.3867 12.7637 65.4453 12.6816C65.8906 12.1191 66.2363 11.3926 66.4824 10.502C66.7402 9.59961 66.8691 8.56836 66.8691 7.4082C66.8691 6.48242 66.7695 5.62695 66.5703 4.8418C66.3828 4.05664 66.1191 3.37695 65.7793 2.80273C65.4512 2.2168 65.0586 1.75977 64.6016 1.43164C64.1445 1.10352 63.6465 0.939453 63.1074 0.939453C62.5684 0.939453 62.0703 1.10352 61.6133 1.43164C61.1562 1.75977 60.7578 2.2168 60.418 2.80273C60.0898 3.37695 59.8262 4.05664 59.627 4.8418C59.4395 5.62695 59.3457 6.48242 59.3457 7.4082H59.3633ZM56.9551 7.42578C56.9551 6.46484 57.1074 5.57422 57.4121 4.75391C57.7285 3.92187 58.1621 3.20703 58.7129 2.60938C59.2637 2 59.9141 1.52539 60.6641 1.18555C61.4141 0.845703 62.2285 0.675781 63.1074 0.675781C63.9863 0.675781 64.8008 0.845703 65.5508 1.18555C66.3008 1.52539 66.9512 2 67.502 2.60938C68.0645 3.20703 68.498 3.92187 68.8027 4.75391C69.1191 5.57422 69.2773 6.46484 69.2773 7.42578C69.2773 8.73828 69.0371 9.88672 68.5566 10.8711C68.0879 11.8555 67.4199 12.6289 66.5527 13.1914C66.4473 13.2617 66.4062 13.3555 66.4297 13.4727C66.4648 13.5781 66.541 13.6543 66.6582 13.7012C67.0449 13.877 67.3672 14.0117 67.625 14.1055C67.8828 14.1992 68.0234 14.252 68.0469 14.2637C68.1055 14.2871 68.1289 14.3047 68.1172 14.3164C68.1055 14.3398 68.0762 14.3633 68.0293 14.3867C67.9824 14.4219 67.9297 14.457 67.8711 14.4922C67.8125 14.5273 67.7656 14.5625 67.7305 14.5977L67.0625 15.3008L66.7812 15.5996C66.6992 15.4824 66.5938 15.3477 66.4648 15.1953C66.3477 15.0547 66.207 14.8906 66.043 14.7031C65.8906 14.5156 65.709 14.3047 65.498 14.0703C65.4395 14.0117 65.3457 13.9707 65.2168 13.9473C65.0996 13.9121 65 13.9062 64.918 13.9297C64.3555 14.0938 63.7578 14.1758 63.125 14.1758C62.1992 14.1758 61.3555 14.0176 60.5938 13.7012C59.832 13.373 59.1816 12.916 58.6426 12.3301C58.1035 11.7324 57.6875 11.0176 57.3945 10.1855C57.1016 9.35352 56.9551 8.43359 56.9551 7.42578ZM80.8789 0.974609C80.8789 0.869141 80.9375 0.816406 81.0547 0.816406C81.1602 0.816406 81.2129 0.869141 81.2129 0.974609V8.83203C81.2129 10.6016 80.8145 11.9316 80.0176 12.8223C79.2207 13.7129 78.0254 14.1582 76.4316 14.1582C73.2441 14.1582 71.6504 12.4121 71.6504 8.91992V1.88867C71.6504 1.5957 71.7559 1.34375 71.9668 1.13281C72.1777 0.921875 72.4297 0.816406 72.7227 0.816406H72.8281C73.1211 0.816406 73.373 0.921875 73.584 1.13281C73.7949 1.34375 73.9004 1.5957 73.9004 1.88867V8.51562C73.9004 10.2852 74.1113 11.6152 74.5332 12.5059C74.9551 13.3965 75.5879 13.8418 76.4316 13.8418C79.3965 13.8418 80.8789 12.1484 80.8789 8.76172V0.974609ZM91.6367 9.57031C91.6602 9.65234 91.6309 9.69336 91.5488 9.69336L86.0469 9.67578C85.8477 9.67578 85.6426 9.74609 85.4316 9.88672C85.2324 10.0273 85.0977 10.1914 85.0273 10.3789L84.0078 13.1035C83.9609 13.2207 83.9141 13.3438 83.8672 13.4727C83.8203 13.5898 83.7734 13.707 83.7266 13.8242C83.6914 13.9297 83.6211 13.9824 83.5156 13.9824H83.3926H83.3047C83.3164 13.9473 83.3281 13.9062 83.3398 13.8594C83.3516 13.8242 83.3691 13.7832 83.3926 13.7363C83.416 13.6777 83.4395 13.6133 83.4629 13.543C83.5215 13.4023 83.627 13.127 83.7793 12.7168C83.9316 12.2949 84.1191 11.791 84.3418 11.2051C84.5645 10.6191 84.8047 9.97461 85.0625 9.27148C85.332 8.56836 85.6016 7.85938 85.8711 7.14453C86.1406 6.42969 86.3984 5.73828 86.6445 5.07031C86.9023 4.40234 87.1309 3.81055 87.3301 3.29492C87.5293 2.76758 87.6875 2.3457 87.8047 2.0293C87.9336 1.71289 87.998 1.54883 87.998 1.53711L88.1387 1.16797C88.1738 1.07422 88.2441 0.992188 88.3496 0.921875C88.4668 0.839844 88.5723 0.798828 88.666 0.798828H89.9844C90.1719 0.798828 90.3652 0.869141 90.5645 1.00977C90.7754 1.15039 90.916 1.31445 90.9863 1.50195L95.3984 13.1562L95.5566 13.543C95.6035 13.6719 95.6387 13.7773 95.6621 13.8594C95.6973 13.9297 95.7148 13.9707 95.7148 13.9824C95.7266 14.0059 95.7207 14.0117 95.6973 14C95.6738 13.9883 95.6504 13.9824 95.627 13.9824H93.6582C93.5645 13.9824 93.4707 13.9531 93.377 13.8945C93.2832 13.8242 93.2188 13.748 93.1836 13.666L93.0605 13.332L92.9727 13.1211C92.7617 12.5234 92.5391 11.9316 92.3047 11.3457C92.082 10.748 91.8594 10.1504 91.6367 9.55273C91.6367 9.55273 91.6367 9.55859 91.6367 9.57031ZM85.9238 7.95312C85.7832 8.32812 85.8125 8.66797 86.0117 8.97266C86.2227 9.26562 86.5332 9.41211 86.9434 9.41211H90.0195C90.4297 9.41211 90.7344 9.26562 90.9336 8.97266C91.1445 8.66797 91.1797 8.32812 91.0391 7.95312L89.4922 3.83984C89.4102 3.59375 89.2754 3.41211 89.0879 3.29492C88.9004 3.16602 88.7012 3.10156 88.4902 3.10156C88.2793 3.10156 88.0801 3.16602 87.8926 3.29492C87.7051 3.41211 87.5645 3.58789 87.4707 3.82227L85.9238 7.95312ZM106.016 0.816406C106.109 0.816406 106.156 0.863281 106.156 0.957031C106.156 1.05078 106.109 1.09766 106.016 1.09766H103.309C103.016 1.09766 102.764 1.20312 102.553 1.41406C102.342 1.625 102.236 1.87695 102.236 2.16992V12.9277C102.236 13.2207 102.131 13.4727 101.92 13.6836C101.709 13.8945 101.457 14 101.164 14H101.041C100.748 14 100.496 13.8945 100.285 13.6836C100.074 13.4727 99.9688 13.2207 99.9688 12.9277V2.16992C99.9688 1.87695 99.8633 1.625 99.6523 1.41406C99.4414 1.20312 99.1895 1.09766 98.8965 1.09766H96.1895C96.0957 1.09766 96.0488 1.05078 96.0488 0.957031C96.0488 0.863281 96.0957 0.816406 96.1895 0.816406H106.016ZM116.703 13.1211C116.738 13.1797 116.768 13.2383 116.791 13.2969C116.826 13.3438 116.855 13.3965 116.879 13.4551C116.914 13.5137 116.949 13.5723 116.984 13.6309L117.09 13.8066C117.113 13.8535 117.113 13.9004 117.09 13.9473C117.066 13.9824 117.031 14 116.984 14H115.244C115.092 14 114.916 13.9414 114.717 13.8242C114.518 13.707 114.377 13.584 114.295 13.4551L111.869 9.14844C111.717 8.87891 111.711 8.62695 111.852 8.39258C111.992 8.14648 112.221 8.02344 112.537 8.02344H113.188C113.34 8.02344 113.516 8.08203 113.715 8.19922C113.914 8.31641 114.055 8.43945 114.137 8.56836L116.703 13.1211ZM110.111 12.9277C110.111 13.2207 110.006 13.4727 109.795 13.6836C109.584 13.8945 109.332 14 109.039 14H108.934C108.641 14 108.389 13.8945 108.178 13.6836C107.967 13.4727 107.861 13.2207 107.861 12.9277V1.88867C107.861 1.5957 107.967 1.34375 108.178 1.13281C108.389 0.921875 108.641 0.816406 108.934 0.816406H112.062C115.145 0.816406 116.686 2.13477 116.686 4.77148C116.686 6.91602 115.145 7.98828 112.062 7.98828H111.096C110.814 7.98828 110.58 8.08203 110.393 8.26953C110.205 8.45703 110.111 8.68555 110.111 8.95508V12.9277ZM110.111 6.74023C110.111 7.00977 110.205 7.24414 110.393 7.44336C110.592 7.63086 110.826 7.72461 111.096 7.72461H112.08C113.65 7.72461 114.436 6.74023 114.436 4.77148C114.436 2.31055 113.639 1.08008 112.045 1.08008H111.078C110.809 1.08008 110.58 1.17383 110.393 1.36133C110.205 1.54883 110.111 1.77734 110.111 2.04688V6.74023ZM120.711 7.4082C120.711 8.38086 120.799 9.26562 120.975 10.0625C121.162 10.8594 121.42 11.5391 121.748 12.1016C122.076 12.6641 122.469 13.1035 122.926 13.4199C123.395 13.7246 123.91 13.877 124.473 13.877C125.035 13.877 125.545 13.7246 126.002 13.4199C126.471 13.1035 126.869 12.6641 127.197 12.1016C127.525 11.5391 127.777 10.8594 127.953 10.0625C128.141 9.26562 128.234 8.38086 128.234 7.4082C128.234 6.48242 128.135 5.62695 127.936 4.8418C127.748 4.05664 127.484 3.37695 127.145 2.80273C126.816 2.2168 126.424 1.75977 125.967 1.43164C125.51 1.10352 125.012 0.939453 124.473 0.939453C123.934 0.939453 123.436 1.10352 122.979 1.43164C122.521 1.75977 122.123 2.2168 121.783 2.80273C121.455 3.37695 121.191 4.05664 120.992 4.8418C120.805 5.62695 120.711 6.48242 120.711 7.4082ZM118.303 7.4082C118.303 6.44727 118.455 5.55664 118.76 4.73633C119.076 3.9043 119.51 3.18945 120.061 2.5918C120.623 1.98242 121.279 1.50781 122.029 1.16797C122.779 0.828125 123.594 0.658203 124.473 0.658203C125.352 0.658203 126.166 0.828125 126.916 1.16797C127.666 1.50781 128.316 1.98242 128.867 2.5918C129.43 3.18945 129.863 3.9043 130.168 4.73633C130.484 5.55664 130.643 6.44727 130.643 7.4082C130.643 8.41602 130.496 9.33594 130.203 10.168C129.91 11 129.494 11.7148 128.955 12.3125C128.416 12.8984 127.766 13.3555 127.004 13.6836C126.242 14 125.398 14.1582 124.473 14.1582C123.547 14.1582 122.703 14 121.941 13.6836C121.18 13.3555 120.529 12.8984 119.99 12.3125C119.451 11.7148 119.035 11 118.742 10.168C118.449 9.33594 118.303 8.41602 118.303 7.4082ZM145.549 3.3125C145.549 3.3125 145.531 3.33008 145.496 3.36523C145.461 3.38867 145.443 3.40625 145.443 3.41797H145.426C145.402 3.42969 145.367 3.42969 145.32 3.41797C145.285 3.39453 145.262 3.37109 145.25 3.34766C144.512 2.5625 143.75 1.9707 142.965 1.57227C142.18 1.16211 141.441 0.957031 140.75 0.957031C140.211 0.957031 139.777 1.25 139.449 1.83594C139.121 2.42188 138.957 3.20117 138.957 4.17383C138.957 5.12305 139.895 5.75586 141.77 6.07227C143.293 6.33008 144.436 6.81641 145.197 7.53125C145.971 8.23438 146.357 9.16016 146.357 10.3086C146.357 10.8828 146.264 11.4102 146.076 11.8906C145.9 12.3594 145.631 12.7637 145.268 13.1035C144.916 13.4316 144.471 13.6895 143.932 13.877C143.393 14.0645 142.771 14.1582 142.068 14.1582C141.037 14.1582 140.082 13.9004 139.203 13.3848C138.324 12.8574 137.627 12.0781 137.111 11.0469C137.064 10.9414 137.088 10.8535 137.182 10.7832C137.275 10.7129 137.346 10.7305 137.393 10.8359C137.896 11.832 138.559 12.5879 139.379 13.1035C140.211 13.6074 141.107 13.8594 142.068 13.8594C142.748 13.8594 143.258 13.543 143.598 12.9102C143.938 12.2773 144.107 11.4336 144.107 10.3789C144.107 9.37109 143.123 8.69727 141.154 8.35742C138.143 7.8418 136.637 6.52344 136.637 4.40234C136.637 3.83984 136.736 3.33008 136.936 2.87305C137.135 2.4043 137.41 2.01172 137.762 1.69531C138.125 1.36719 138.559 1.11523 139.062 0.939453C139.578 0.751953 140.141 0.658203 140.75 0.658203C141.406 0.658203 142.021 0.787109 142.596 1.04492C143.17 1.30273 143.674 1.58984 144.107 1.90625C144.611 2.26953 145.074 2.68555 145.496 3.1543L145.549 3.20703C145.584 3.24219 145.584 3.27734 145.549 3.3125ZM157.133 0.816406C157.227 0.816406 157.273 0.863281 157.273 0.957031C157.273 1.05078 157.227 1.09766 157.133 1.09766H154.426C154.133 1.09766 153.881 1.20312 153.67 1.41406C153.459 1.625 153.354 1.87695 153.354 2.16992V12.9277C153.354 13.2207 153.248 13.4727 153.037 13.6836C152.826 13.8945 152.574 14 152.281 14H152.158C151.865 14 151.613 13.8945 151.402 13.6836C151.191 13.4727 151.086 13.2207 151.086 12.9277V2.16992C151.086 1.87695 150.98 1.625 150.77 1.41406C150.559 1.20312 150.307 1.09766 150.014 1.09766H147.307C147.213 1.09766 147.166 1.05078 147.166 0.957031C147.166 0.863281 147.213 0.816406 147.307 0.816406H157.133ZM166.467 9.57031C166.49 9.65234 166.461 9.69336 166.379 9.69336L160.877 9.67578C160.678 9.67578 160.473 9.74609 160.262 9.88672C160.062 10.0273 159.928 10.1914 159.857 10.3789L158.838 13.1035C158.791 13.2207 158.744 13.3438 158.697 13.4727C158.65 13.5898 158.604 13.707 158.557 13.8242C158.521 13.9297 158.451 13.9824 158.346 13.9824H158.223H158.135C158.146 13.9473 158.158 13.9062 158.17 13.8594C158.182 13.8242 158.199 13.7832 158.223 13.7363C158.246 13.6777 158.27 13.6133 158.293 13.543C158.352 13.4023 158.457 13.127 158.609 12.7168C158.762 12.2949 158.949 11.791 159.172 11.2051C159.395 10.6191 159.635 9.97461 159.893 9.27148C160.162 8.56836 160.432 7.85938 160.701 7.14453C160.971 6.42969 161.229 5.73828 161.475 5.07031C161.732 4.40234 161.961 3.81055 162.16 3.29492C162.359 2.76758 162.518 2.3457 162.635 2.0293C162.764 1.71289 162.828 1.54883 162.828 1.53711L162.969 1.16797C163.004 1.07422 163.074 0.992188 163.18 0.921875C163.297 0.839844 163.402 0.798828 163.496 0.798828H164.814C165.002 0.798828 165.195 0.869141 165.395 1.00977C165.605 1.15039 165.746 1.31445 165.816 1.50195L170.229 13.1562L170.387 13.543C170.434 13.6719 170.469 13.7773 170.492 13.8594C170.527 13.9297 170.545 13.9707 170.545 13.9824C170.557 14.0059 170.551 14.0117 170.527 14C170.504 13.9883 170.48 13.9824 170.457 13.9824H168.488C168.395 13.9824 168.301 13.9531 168.207 13.8945C168.113 13.8242 168.049 13.748 168.014 13.666L167.891 13.332L167.803 13.1211C167.592 12.5234 167.369 11.9316 167.135 11.3457C166.912 10.748 166.689 10.1504 166.467 9.55273C166.467 9.55273 166.467 9.55859 166.467 9.57031ZM160.754 7.95312C160.613 8.32812 160.643 8.66797 160.842 8.97266C161.053 9.26562 161.363 9.41211 161.773 9.41211H164.85C165.26 9.41211 165.564 9.26562 165.764 8.97266C165.975 8.66797 166.01 8.32812 165.869 7.95312L164.322 3.83984C164.24 3.59375 164.105 3.41211 163.918 3.29492C163.73 3.16602 163.531 3.10156 163.32 3.10156C163.109 3.10156 162.91 3.16602 162.723 3.29492C162.535 3.41211 162.395 3.58789 162.301 3.82227L160.754 7.95312ZM178.789 7.05664C178.695 7.05664 178.648 7.00977 178.648 6.91602C178.648 6.82227 178.695 6.77539 178.789 6.77539H181.953C182.246 6.77539 182.498 6.88086 182.709 7.0918C182.92 7.30273 183.025 7.55469 183.025 7.84766V11.6621C183.025 11.7793 182.973 11.9375 182.867 12.1367C182.773 12.3242 182.68 12.4531 182.586 12.5234C181.93 13.0273 181.25 13.4258 180.547 13.7188C179.855 14.0117 179.193 14.1582 178.561 14.1582C177.518 14.1582 176.568 14 175.713 13.6836C174.857 13.3555 174.125 12.8984 173.516 12.3125C172.918 11.7148 172.449 11 172.109 10.168C171.781 9.33594 171.617 8.41602 171.617 7.4082C171.617 6.40039 171.781 5.48047 172.109 4.64844C172.449 3.81641 172.918 3.10742 173.516 2.52148C174.125 1.92383 174.857 1.4668 175.713 1.15039C176.568 0.822266 177.518 0.658203 178.561 0.658203C178.877 0.658203 179.205 0.734375 179.545 0.886719C179.896 1.02734 180.236 1.22656 180.564 1.48438C180.904 1.74219 181.232 2.05859 181.549 2.43359C181.877 2.80859 182.176 3.21875 182.445 3.66406C182.457 3.6875 182.469 3.72266 182.48 3.76953C182.492 3.81641 182.492 3.8457 182.48 3.85742L182.41 3.91016L182.34 3.96289C182.316 3.97461 182.287 3.96875 182.252 3.94531C182.217 3.92187 182.193 3.89844 182.182 3.875C181.924 3.42969 181.643 3.03125 181.338 2.67969C181.033 2.31641 180.723 2.00586 180.406 1.74805C180.09 1.49023 179.773 1.29102 179.457 1.15039C179.141 1.00977 178.842 0.939453 178.561 0.939453C177.881 0.939453 177.26 1.09766 176.697 1.41406C176.146 1.71875 175.672 2.15234 175.273 2.71484C174.875 3.27734 174.564 3.95703 174.342 4.75391C174.131 5.55078 174.025 6.43555 174.025 7.4082C174.025 8.38086 174.131 9.26562 174.342 10.0625C174.564 10.8594 174.875 11.5391 175.273 12.1016C175.672 12.6641 176.146 13.1035 176.697 13.4199C177.26 13.7246 177.881 13.877 178.561 13.877C179.135 13.877 179.744 13.7422 180.389 13.4727C181.033 13.1914 181.666 12.8164 182.287 12.3477C182.381 12.2656 182.469 12.1367 182.551 11.9609C182.645 11.7734 182.691 11.6211 182.691 11.5039V8.12891C182.691 7.83594 182.586 7.58398 182.375 7.37305C182.164 7.16211 181.912 7.05664 181.619 7.05664H178.789ZM187.613 12.9277C187.613 13.2207 187.508 13.4727 187.297 13.6836C187.086 13.8945 186.834 14 186.541 14H186.436C186.143 14 185.891 13.8945 185.68 13.6836C185.469 13.4727 185.363 13.2207 185.363 12.9277V1.88867C185.363 1.5957 185.469 1.34375 185.68 1.13281C185.891 0.921875 186.143 0.816406 186.436 0.816406H186.541C186.834 0.816406 187.086 0.921875 187.297 1.13281C187.508 1.34375 187.613 1.5957 187.613 1.88867V12.9277ZM192.518 7.4082C192.518 8.38086 192.605 9.26562 192.781 10.0625C192.969 10.8594 193.227 11.5391 193.555 12.1016C193.883 12.6641 194.275 13.1035 194.732 13.4199C195.201 13.7246 195.717 13.877 196.279 13.877C196.842 13.877 197.352 13.7246 197.809 13.4199C198.277 13.1035 198.676 12.6641 199.004 12.1016C199.332 11.5391 199.584 10.8594 199.76 10.0625C199.947 9.26562 200.041 8.38086 200.041 7.4082C200.041 6.48242 199.941 5.62695 199.742 4.8418C199.555 4.05664 199.291 3.37695 198.951 2.80273C198.623 2.2168 198.23 1.75977 197.773 1.43164C197.316 1.10352 196.818 0.939453 196.279 0.939453C195.74 0.939453 195.242 1.10352 194.785 1.43164C194.328 1.75977 193.93 2.2168 193.59 2.80273C193.262 3.37695 192.998 4.05664 192.799 4.8418C192.611 5.62695 192.518 6.48242 192.518 7.4082ZM190.109 7.4082C190.109 6.44727 190.262 5.55664 190.566 4.73633C190.883 3.9043 191.316 3.18945 191.867 2.5918C192.43 1.98242 193.086 1.50781 193.836 1.16797C194.586 0.828125 195.4 0.658203 196.279 0.658203C197.158 0.658203 197.973 0.828125 198.723 1.16797C199.473 1.50781 200.123 1.98242 200.674 2.5918C201.236 3.18945 201.67 3.9043 201.975 4.73633C202.291 5.55664 202.449 6.44727 202.449 7.4082C202.449 8.41602 202.303 9.33594 202.01 10.168C201.717 11 201.301 11.7148 200.762 12.3125C200.223 12.8984 199.572 13.3555 198.811 13.6836C198.049 14 197.205 14.1582 196.279 14.1582C195.354 14.1582 194.51 14 193.748 13.6836C192.986 13.3555 192.336 12.8984 191.797 12.3125C191.258 11.7148 190.842 11 190.549 10.168C190.256 9.33594 190.109 8.41602 190.109 7.4082ZM205.754 13.8242C205.754 13.9414 205.701 14 205.596 14C205.479 14 205.42 13.9414 205.42 13.8242V1.88867C205.42 1.5957 205.525 1.34375 205.736 1.13281C205.947 0.921875 206.199 0.816406 206.492 0.816406H207.213C207.4 0.816406 207.594 0.886719 207.793 1.02734C208.004 1.15625 208.145 1.30859 208.215 1.48438L211.256 8.70898C211.361 8.9668 211.531 9.14844 211.766 9.25391C212 9.34766 212.229 9.37109 212.451 9.32422C212.686 9.27734 212.891 9.16602 213.066 8.99023C213.242 8.80273 213.33 8.56836 213.33 8.28711V0.974609C213.33 0.869141 213.389 0.816406 213.506 0.816406C213.611 0.816406 213.664 0.869141 213.664 0.974609V12.9277C213.664 13.2207 213.559 13.4727 213.348 13.6836C213.137 13.8945 212.885 14 212.592 14H211.695C211.508 14 211.309 13.9355 211.098 13.8066C210.898 13.666 210.764 13.5078 210.693 13.332L207.828 6.5293C207.723 6.27148 207.553 6.0957 207.318 6.00195C207.084 5.89648 206.85 5.86719 206.615 5.91406C206.393 5.96094 206.193 6.07812 206.018 6.26562C205.842 6.44141 205.754 6.66992 205.754 6.95117V13.8242ZM218.955 12.9277C218.955 13.2207 218.85 13.4727 218.639 13.6836C218.428 13.8945 218.176 14 217.883 14H217.777C217.484 14 217.232 13.8945 217.021 13.6836C216.811 13.4727 216.705 13.2207 216.705 12.9277V1.88867C216.705 1.5957 216.811 1.34375 217.021 1.13281C217.232 0.921875 217.484 0.816406 217.777 0.816406H217.883C218.176 0.816406 218.428 0.921875 218.639 1.13281C218.85 1.34375 218.955 1.5957 218.955 1.88867V12.9277ZM231.189 14C230.896 14 230.645 13.8945 230.434 13.6836C230.223 13.4727 230.117 13.2207 230.117 12.9277V12.875C230.117 12.582 230.223 12.3301 230.434 12.1191C230.645 11.9082 230.896 11.8027 231.189 11.8027H231.242C231.535 11.8027 231.787 11.9082 231.998 12.1191C232.209 12.3301 232.314 12.582 232.314 12.875V12.9277C232.314 13.2207 232.209 13.4727 231.998 13.6836C231.787 13.8945 231.535 14 231.242 14H231.189ZM239.539 14C239.246 14 238.994 13.8945 238.783 13.6836C238.572 13.4727 238.467 13.2207 238.467 12.9277V12.875C238.467 12.582 238.572 12.3301 238.783 12.1191C238.994 11.9082 239.246 11.8027 239.539 11.8027H239.592C239.885 11.8027 240.137 11.9082 240.348 12.1191C240.559 12.3301 240.664 12.582 240.664 12.875V12.9277C240.664 13.2207 240.559 13.4727 240.348 13.6836C240.137 13.8945 239.885 14 239.592 14H239.539ZM247.889 14C247.596 14 247.344 13.8945 247.133 13.6836C246.922 13.4727 246.816 13.2207 246.816 12.9277V12.875C246.816 12.582 246.922 12.3301 247.133 12.1191C247.344 11.9082 247.596 11.8027 247.889 11.8027H247.941C248.234 11.8027 248.486 11.9082 248.697 12.1191C248.908 12.3301 249.014 12.582 249.014 12.875V12.9277C249.014 13.2207 248.908 13.4727 248.697 13.6836C248.486 13.8945 248.234 14 247.941 14H247.889ZM256.238 14C255.945 14 255.693 13.8945 255.482 13.6836C255.271 13.4727 255.166 13.2207 255.166 12.9277V12.875C255.166 12.582 255.271 12.3301 255.482 12.1191C255.693 11.9082 255.945 11.8027 256.238 11.8027H256.291C256.584 11.8027 256.836 11.9082 257.047 12.1191C257.258 12.3301 257.363 12.582 257.363 12.875V12.9277C257.363 13.2207 257.258 13.4727 257.047 13.6836C256.836 13.8945 256.584 14 256.291 14H256.238ZM273.359 7.98828C273.242 7.96484 273.189 7.89453 273.201 7.77734L273.887 1.76562C273.91 1.49609 274.027 1.26758 274.238 1.08008C274.449 0.892578 274.689 0.798828 274.959 0.798828H279.494C279.799 0.798828 280.045 0.904297 280.232 1.11523C280.432 1.32617 280.525 1.57813 280.514 1.87109L280.496 1.95898C280.473 2.24023 280.355 2.48047 280.145 2.67969C279.945 2.86719 279.705 2.96094 279.424 2.96094H275.188C274.93 2.96094 274.695 3.05469 274.484 3.24219C274.273 3.41797 274.15 3.62891 274.115 3.875L273.852 5.7207C273.84 5.7793 273.857 5.82617 273.904 5.86133C273.963 5.89648 274.016 5.90234 274.062 5.87891C274.344 5.73828 274.695 5.62695 275.117 5.54492C275.551 5.46289 276.014 5.42188 276.506 5.42188C277.209 5.42188 277.848 5.52734 278.422 5.73828C278.996 5.94922 279.488 6.25391 279.898 6.65234C280.309 7.03906 280.625 7.50781 280.848 8.05859C281.07 8.59766 281.182 9.20117 281.182 9.86914C281.182 10.5137 281.07 11.0996 280.848 11.627C280.637 12.1543 280.338 12.6055 279.951 12.9805C279.564 13.3555 279.096 13.6484 278.545 13.8594C277.994 14.0586 277.385 14.1582 276.717 14.1582C275.58 14.1582 274.625 13.8594 273.852 13.2617C273.09 12.6641 272.598 11.8555 272.375 10.8359C272.293 10.4844 272.34 10.209 272.516 10.0098C272.691 9.79883 272.961 9.69336 273.324 9.69336H273.518C273.775 9.69336 274.021 9.80469 274.256 10.0273C274.49 10.25 274.619 10.4961 274.643 10.7656C274.748 11.7148 274.982 12.4707 275.346 13.0332C275.709 13.584 276.166 13.8594 276.717 13.8594C277.021 13.8594 277.297 13.7656 277.543 13.5781C277.801 13.3789 278.018 13.1094 278.193 12.7695C278.381 12.418 278.521 11.9961 278.615 11.5039C278.721 11.0117 278.773 10.4668 278.773 9.86914C278.773 9.08398 278.527 8.45117 278.035 7.9707C277.543 7.49023 276.893 7.25 276.084 7.25C275.557 7.25 275.07 7.31445 274.625 7.44336C274.191 7.56055 273.857 7.71875 273.623 7.91797C273.6 7.94141 273.553 7.96484 273.482 7.98828C273.424 8 273.383 8 273.359 7.98828ZM283.818 7.98828C283.701 7.96484 283.648 7.89453 283.66 7.77734L284.346 1.76562C284.369 1.49609 284.486 1.26758 284.697 1.08008C284.908 0.892578 285.148 0.798828 285.418 0.798828H289.953C290.258 0.798828 290.504 0.904297 290.691 1.11523C290.891 1.32617 290.984 1.57813 290.973 1.87109L290.955 1.95898C290.932 2.24023 290.814 2.48047 290.604 2.67969C290.404 2.86719 290.164 2.96094 289.883 2.96094H285.646C285.389 2.96094 285.154 3.05469 284.943 3.24219C284.732 3.41797 284.609 3.62891 284.574 3.875L284.311 5.7207C284.299 5.7793 284.316 5.82617 284.363 5.86133C284.422 5.89648 284.475 5.90234 284.521 5.87891C284.803 5.73828 285.154 5.62695 285.576 5.54492C286.01 5.46289 286.473 5.42188 286.965 5.42188C287.668 5.42188 288.307 5.52734 288.881 5.73828C289.455 5.94922 289.947 6.25391 290.357 6.65234C290.768 7.03906 291.084 7.50781 291.307 8.05859C291.529 8.59766 291.641 9.20117 291.641 9.86914C291.641 10.5137 291.529 11.0996 291.307 11.627C291.096 12.1543 290.797 12.6055 290.41 12.9805C290.023 13.3555 289.555 13.6484 289.004 13.8594C288.453 14.0586 287.844 14.1582 287.176 14.1582C286.039 14.1582 285.084 13.8594 284.311 13.2617C283.549 12.6641 283.057 11.8555 282.834 10.8359C282.752 10.4844 282.799 10.209 282.975 10.0098C283.15 9.79883 283.42 9.69336 283.783 9.69336H283.977C284.234 9.69336 284.48 9.80469 284.715 10.0273C284.949 10.25 285.078 10.4961 285.102 10.7656C285.207 11.7148 285.441 12.4707 285.805 13.0332C286.168 13.584 286.625 13.8594 287.176 13.8594C287.48 13.8594 287.756 13.7656 288.002 13.5781C288.26 13.3789 288.477 13.1094 288.652 12.7695C288.84 12.418 288.98 11.9961 289.074 11.5039C289.18 11.0117 289.232 10.4668 289.232 9.86914C289.232 9.08398 288.986 8.45117 288.494 7.9707C288.002 7.49023 287.352 7.25 286.543 7.25C286.016 7.25 285.529 7.31445 285.084 7.44336C284.65 7.56055 284.316 7.71875 284.082 7.91797C284.059 7.94141 284.012 7.96484 283.941 7.98828C283.883 8 283.842 8 283.818 7.98828ZM293.223 12.875C293.223 12.582 293.328 12.3301 293.539 12.1191C293.75 11.9082 294.002 11.8027 294.295 11.8027H294.348C294.641 11.8027 294.893 11.9082 295.104 12.1191C295.314 12.3301 295.42 12.582 295.42 12.875V14C295.42 14.668 295.291 15.166 295.033 15.4941C294.787 15.8223 294.365 16.0156 293.768 16.0742C293.604 16.0977 293.469 16.0625 293.363 15.9688C293.27 15.875 293.223 15.7461 293.223 15.582V15.3711C293.223 15.3008 293.252 15.2305 293.311 15.1602C293.381 15.0898 293.451 15.043 293.521 15.0195C293.838 14.9609 294.025 14.7383 294.084 14.3516C294.119 14.1172 294.002 14 293.732 14H293.662C293.545 14 293.439 13.959 293.346 13.877C293.264 13.7832 293.223 13.6777 293.223 13.5605V12.875ZM305.668 2.97852C305.691 3.04883 305.662 3.10742 305.58 3.1543C305.486 3.21289 305.428 3.20703 305.404 3.13672C305.17 2.46875 304.736 1.93555 304.104 1.53711C303.471 1.12695 302.738 0.921875 301.906 0.921875C301.543 0.921875 301.221 1.05664 300.939 1.32617C300.67 1.5957 300.441 1.97656 300.254 2.46875C300.066 2.96094 299.92 3.55273 299.814 4.24414C299.709 4.93555 299.645 5.70898 299.621 6.56445C299.621 6.61133 299.656 6.65234 299.727 6.6875C299.797 6.72266 299.85 6.7168 299.885 6.66992C300.143 6.35352 300.471 6.10156 300.869 5.91406C301.279 5.72656 301.719 5.63281 302.188 5.63281C302.832 5.63281 303.418 5.73242 303.945 5.93164C304.473 6.11914 304.924 6.39453 305.299 6.75781C305.686 7.10938 305.979 7.53711 306.178 8.04102C306.389 8.5332 306.494 9.08398 306.494 9.69336C306.494 10.3613 306.383 10.9707 306.16 11.5215C305.949 12.0723 305.645 12.541 305.246 12.9277C304.859 13.3145 304.391 13.6191 303.84 13.8418C303.289 14.0527 302.674 14.1582 301.994 14.1582C300.424 14.1582 299.246 13.6016 298.461 12.4883C297.676 11.375 297.283 9.7168 297.283 7.51367C297.283 6.48242 297.377 5.54492 297.564 4.70117C297.764 3.85742 298.057 3.13672 298.443 2.53906C298.83 1.94141 299.311 1.47852 299.885 1.15039C300.471 0.822266 301.145 0.658203 301.906 0.658203C302.809 0.658203 303.6 0.869141 304.279 1.29102C304.959 1.71289 305.422 2.27539 305.668 2.97852ZM302.117 5.89648C301.379 5.89648 300.781 6.03711 300.324 6.31836C299.879 6.59961 299.645 6.98047 299.621 7.46094C299.645 9.59375 299.855 11.1992 300.254 12.2773C300.652 13.3438 301.232 13.877 301.994 13.877C302.311 13.877 302.592 13.7773 302.838 13.5781C303.096 13.3789 303.318 13.0977 303.506 12.7344C303.693 12.3594 303.834 11.9199 303.928 11.416C304.033 10.9004 304.086 10.3262 304.086 9.69336C304.086 9.13086 304.039 8.61523 303.945 8.14648C303.852 7.67773 303.717 7.2793 303.541 6.95117C303.365 6.62305 303.154 6.37109 302.908 6.19531C302.674 6.00781 302.41 5.91406 302.117 5.91406V5.89648ZM310.186 4.26172C310.186 5.03516 310.338 5.65625 310.643 6.125C310.959 6.58203 311.457 6.81055 312.137 6.81055C312.723 6.81055 313.191 6.60547 313.543 6.19531C313.895 5.78516 314.07 5.14062 314.07 4.26172C314.07 3.26563 313.906 2.46289 313.578 1.85352C313.262 1.24414 312.781 0.939453 312.137 0.939453C311.539 0.939453 311.064 1.2207 310.713 1.7832C310.361 2.33398 310.186 3.16016 310.186 4.26172ZM308.094 4.06836C308.094 3.50586 308.188 3.01367 308.375 2.5918C308.574 2.1582 308.85 1.80078 309.201 1.51953C309.553 1.23828 309.975 1.02734 310.467 0.886719C310.971 0.734375 311.527 0.658203 312.137 0.658203C313.461 0.658203 314.463 0.974609 315.143 1.60742C315.822 2.22852 316.162 3.04883 316.162 4.06836C316.162 4.79492 315.969 5.38086 315.582 5.82617C315.207 6.27148 314.686 6.59375 314.018 6.79297C313.959 6.80469 313.918 6.85742 313.895 6.95117C313.883 7.04492 313.906 7.09766 313.965 7.10938C314.891 7.34375 315.57 7.75391 316.004 8.33984C316.438 8.91406 316.654 9.61719 316.654 10.4492C316.654 11.0938 316.543 11.6504 316.32 12.1191C316.109 12.5762 315.805 12.957 315.406 13.2617C315.008 13.5664 314.527 13.7949 313.965 13.9473C313.414 14.0879 312.799 14.1582 312.119 14.1582C311.334 14.1582 310.654 14.0703 310.08 13.8945C309.506 13.707 309.031 13.4551 308.656 13.1387C308.293 12.8105 308.018 12.418 307.83 11.9609C307.654 11.5039 307.566 10.9941 307.566 10.4316C307.566 9.55273 307.789 8.84375 308.234 8.30469C308.68 7.76562 309.295 7.38477 310.08 7.16211C310.139 7.13867 310.18 7.06836 310.203 6.95117C310.227 6.83398 310.209 6.76367 310.15 6.74023C309.436 6.5293 308.914 6.19531 308.586 5.73828C308.258 5.26953 308.094 4.71289 308.094 4.06836ZM309.992 10.2734C309.992 11.3516 310.162 12.2246 310.502 12.8926C310.854 13.5488 311.398 13.877 312.137 13.877C312.781 13.877 313.297 13.5898 313.684 13.0156C314.07 12.4297 314.264 11.5039 314.264 10.2383C314.264 9.30078 314.094 8.55078 313.754 7.98828C313.414 7.41406 312.875 7.12695 312.137 7.12695C311.492 7.12695 310.971 7.37891 310.572 7.88281C310.186 8.375 309.992 9.17188 309.992 10.2734ZM332.668 0.974609C332.668 0.869141 332.727 0.816406 332.844 0.816406C332.949 0.816406 333.002 0.869141 333.002 0.974609V8.83203C333.002 10.6016 332.604 11.9316 331.807 12.8223C331.01 13.7129 329.814 14.1582 328.221 14.1582C325.033 14.1582 323.439 12.4121 323.439 8.91992V1.88867C323.439 1.5957 323.545 1.34375 323.756 1.13281C323.967 0.921875 324.219 0.816406 324.512 0.816406H324.617C324.91 0.816406 325.162 0.921875 325.373 1.13281C325.584 1.34375 325.689 1.5957 325.689 1.88867V8.51562C325.689 10.2852 325.9 11.6152 326.322 12.5059C326.744 13.3965 327.377 13.8418 328.221 13.8418C331.186 13.8418 332.668 12.1484 332.668 8.76172V0.974609ZM343.953 3.3125C343.953 3.3125 343.936 3.33008 343.9 3.36523C343.865 3.38867 343.848 3.40625 343.848 3.41797H343.83C343.807 3.42969 343.771 3.42969 343.725 3.41797C343.689 3.39453 343.666 3.37109 343.654 3.34766C342.916 2.5625 342.154 1.9707 341.369 1.57227C340.584 1.16211 339.846 0.957031 339.154 0.957031C338.615 0.957031 338.182 1.25 337.854 1.83594C337.525 2.42188 337.361 3.20117 337.361 4.17383C337.361 5.12305 338.299 5.75586 340.174 6.07227C341.697 6.33008 342.84 6.81641 343.602 7.53125C344.375 8.23438 344.762 9.16016 344.762 10.3086C344.762 10.8828 344.668 11.4102 344.48 11.8906C344.305 12.3594 344.035 12.7637 343.672 13.1035C343.32 13.4316 342.875 13.6895 342.336 13.877C341.797 14.0645 341.176 14.1582 340.473 14.1582C339.441 14.1582 338.486 13.9004 337.607 13.3848C336.729 12.8574 336.031 12.0781 335.516 11.0469C335.469 10.9414 335.492 10.8535 335.586 10.7832C335.68 10.7129 335.75 10.7305 335.797 10.8359C336.301 11.832 336.963 12.5879 337.783 13.1035C338.615 13.6074 339.512 13.8594 340.473 13.8594C341.152 13.8594 341.662 13.543 342.002 12.9102C342.342 12.2773 342.512 11.4336 342.512 10.3789C342.512 9.37109 341.527 8.69727 339.559 8.35742C336.547 7.8418 335.041 6.52344 335.041 4.40234C335.041 3.83984 335.141 3.33008 335.34 2.87305C335.539 2.4043 335.814 2.01172 336.166 1.69531C336.529 1.36719 336.963 1.11523 337.467 0.939453C337.982 0.751953 338.545 0.658203 339.154 0.658203C339.811 0.658203 340.426 0.787109 341 1.04492C341.574 1.30273 342.078 1.58984 342.512 1.90625C343.016 2.26953 343.479 2.68555 343.9 3.1543L343.953 3.20703C343.988 3.24219 343.988 3.27734 343.953 3.3125ZM351.547 14H347.996C347.703 14 347.451 13.8945 347.24 13.6836C347.029 13.4727 346.924 13.2207 346.924 12.9277V1.88867C346.924 1.5957 347.029 1.34375 347.24 1.13281C347.451 0.921875 347.703 0.816406 347.996 0.816406H351.02C353.293 0.816406 355.004 1.36719 356.152 2.46875C357.301 3.57031 357.875 5.2168 357.875 7.4082C357.875 9.6582 357.359 11.3223 356.328 12.4004C355.297 13.4668 353.703 14 351.547 14ZM349.174 12.6641C349.174 12.957 349.279 13.209 349.49 13.4199C349.701 13.6309 349.953 13.7363 350.246 13.7363H351.529C352.877 13.7363 353.867 13.2207 354.5 12.1895C355.145 11.1582 355.467 9.56445 355.467 7.4082C355.467 5.29883 355.092 3.7168 354.342 2.66211C353.604 1.60742 352.502 1.08008 351.037 1.08008H350.105C349.848 1.08008 349.625 1.17383 349.438 1.36133C349.262 1.53711 349.174 1.75391 349.174 2.01172V12.6641Z" fill="#333333"/>
<path d="M0.177734 28V19.4336H1.17383V28H0.177734ZM7.77734 28V23.8457C7.77734 23.3223 7.6582 22.9316 7.41992 22.6738C7.18164 22.416 6.80859 22.2871 6.30078 22.2871C5.62891 22.2871 5.13672 22.4688 4.82422 22.832C4.51172 23.1953 4.35547 23.7949 4.35547 24.6309V28H3.38281V21.5781H4.17383L4.33203 22.457H4.37891C4.57812 22.1406 4.85742 21.8965 5.2168 21.7246C5.57617 21.5488 5.97656 21.4609 6.41797 21.4609C7.19141 21.4609 7.77344 21.6484 8.16406 22.0234C8.55469 22.3945 8.75 22.9902 8.75 23.8105V28H7.77734ZM12.8281 27.3145C13 27.3145 13.166 27.3027 13.3262 27.2793C13.4863 27.252 13.6133 27.2246 13.707 27.1973V27.9414C13.6016 27.9922 13.4453 28.0332 13.2383 28.0645C13.0352 28.0996 12.8516 28.1172 12.6875 28.1172C11.4453 28.1172 10.8242 27.4629 10.8242 26.1543V22.334H9.9043V21.8652L10.8242 21.4609L11.2344 20.0898H11.7969V21.5781H13.6602V22.334H11.7969V26.1133C11.7969 26.5 11.8887 26.7969 12.0723 27.0039C12.2559 27.2109 12.5078 27.3145 12.8281 27.3145ZM17.709 28.1172C16.7598 28.1172 16.0098 27.8281 15.459 27.25C14.9121 26.6719 14.6387 25.8691 14.6387 24.8418C14.6387 23.8066 14.8926 22.9844 15.4004 22.375C15.9121 21.7656 16.5977 21.4609 17.457 21.4609C18.2617 21.4609 18.8984 21.7266 19.3672 22.2578C19.8359 22.7852 20.0703 23.4824 20.0703 24.3496V24.9648H15.6465C15.666 25.7188 15.8555 26.291 16.2148 26.6816C16.5781 27.0723 17.0879 27.2676 17.7441 27.2676C18.4355 27.2676 19.1191 27.123 19.7949 26.834V27.7012C19.4512 27.8496 19.125 27.9551 18.8164 28.0176C18.5117 28.084 18.1426 28.1172 17.709 28.1172ZM17.4453 22.2754C16.9297 22.2754 16.5176 22.4434 16.209 22.7793C15.9043 23.1152 15.7246 23.5801 15.6699 24.1738H19.0273C19.0273 23.5605 18.8906 23.0918 18.6172 22.7676C18.3438 22.4395 17.9531 22.2754 17.4453 22.2754ZM26.9902 21.5781V22.1934L25.8008 22.334C25.9102 22.4707 26.0078 22.6504 26.0938 22.873C26.1797 23.0918 26.2227 23.3398 26.2227 23.6172C26.2227 24.2461 26.0078 24.748 25.5781 25.123C25.1484 25.498 24.5586 25.6855 23.8086 25.6855C23.6172 25.6855 23.4375 25.6699 23.2695 25.6387C22.8555 25.8574 22.6484 26.1328 22.6484 26.4648C22.6484 26.6406 22.7207 26.7715 22.8652 26.8574C23.0098 26.9395 23.2578 26.9805 23.6094 26.9805H24.7461C25.4414 26.9805 25.9746 27.127 26.3457 27.4199C26.7207 27.7129 26.9082 28.1387 26.9082 28.6973C26.9082 29.4082 26.623 29.9492 26.0527 30.3203C25.4824 30.6953 24.6504 30.8828 23.5566 30.8828C22.7168 30.8828 22.0684 30.7266 21.6113 30.4141C21.1582 30.1016 20.9316 29.6602 20.9316 29.0898C20.9316 28.6992 21.0566 28.3613 21.3066 28.0762C21.5566 27.791 21.9082 27.5977 22.3613 27.4961C22.1973 27.4219 22.0586 27.3066 21.9453 27.1504C21.8359 26.9941 21.7812 26.8125 21.7812 26.6055C21.7812 26.3711 21.8438 26.166 21.9688 25.9902C22.0938 25.8145 22.291 25.6445 22.5605 25.4805C22.2285 25.3438 21.957 25.1113 21.7461 24.7832C21.5391 24.4551 21.4355 24.0801 21.4355 23.6582C21.4355 22.9551 21.6465 22.4141 22.0684 22.0352C22.4902 21.6523 23.0879 21.4609 23.8613 21.4609C24.1973 21.4609 24.5 21.5 24.7695 21.5781H26.9902ZM21.8691 29.0781C21.8691 29.4258 22.0156 29.6895 22.3086 29.8691C22.6016 30.0488 23.0215 30.1387 23.5684 30.1387C24.3848 30.1387 24.9883 30.0156 25.3789 29.7695C25.7734 29.5273 25.9707 29.1973 25.9707 28.7793C25.9707 28.4316 25.8633 28.1895 25.6484 28.0527C25.4336 27.9199 25.0293 27.8535 24.4355 27.8535H23.2695C22.8281 27.8535 22.4844 27.959 22.2383 28.1699C21.9922 28.3809 21.8691 28.6836 21.8691 29.0781ZM22.3965 23.6348C22.3965 24.084 22.5234 24.4238 22.7773 24.6543C23.0312 24.8848 23.3848 25 23.8379 25C24.7871 25 25.2617 24.5391 25.2617 23.6172C25.2617 22.6523 24.7812 22.1699 23.8203 22.1699C23.3633 22.1699 23.0117 22.293 22.7656 22.5391C22.5195 22.7852 22.3965 23.1504 22.3965 23.6348ZM31.0215 28.1172C30.0723 28.1172 29.3223 27.8281 28.7715 27.25C28.2246 26.6719 27.9512 25.8691 27.9512 24.8418C27.9512 23.8066 28.2051 22.9844 28.7129 22.375C29.2246 21.7656 29.9102 21.4609 30.7695 21.4609C31.5742 21.4609 32.2109 21.7266 32.6797 22.2578C33.1484 22.7852 33.3828 23.4824 33.3828 24.3496V24.9648H28.959C28.9785 25.7188 29.168 26.291 29.5273 26.6816C29.8906 27.0723 30.4004 27.2676 31.0566 27.2676C31.748 27.2676 32.4316 27.123 33.1074 26.834V27.7012C32.7637 27.8496 32.4375 27.9551 32.1289 28.0176C31.8242 28.084 31.4551 28.1172 31.0215 28.1172ZM30.7578 22.2754C30.2422 22.2754 29.8301 22.4434 29.5215 22.7793C29.2168 23.1152 29.0371 23.5801 28.9824 24.1738H32.3398C32.3398 23.5605 32.2031 23.0918 31.9297 22.7676C31.6562 22.4395 31.2656 22.2754 30.7578 22.2754ZM37.9766 21.4609C38.2617 21.4609 38.5176 21.4844 38.7441 21.5312L38.6094 22.4336C38.3438 22.375 38.1094 22.3457 37.9062 22.3457C37.3867 22.3457 36.9414 22.5566 36.5703 22.9785C36.2031 23.4004 36.0195 23.9258 36.0195 24.5547V28H35.0469V21.5781H35.8496L35.9609 22.7676H36.0078C36.2461 22.3496 36.5332 22.0273 36.8691 21.8008C37.2051 21.5742 37.5742 21.4609 37.9766 21.4609ZM43.9766 21.5781V25.7441C43.9766 26.2676 44.0957 26.6582 44.334 26.916C44.5723 27.1738 44.9453 27.3027 45.4531 27.3027C46.125 27.3027 46.6152 27.1191 46.9238 26.752C47.2363 26.3848 47.3926 25.7852 47.3926 24.9531V21.5781H48.3652V28H47.5625L47.4219 27.1387H47.3691C47.1699 27.4551 46.8926 27.6973 46.5371 27.8652C46.1855 28.0332 45.7832 28.1172 45.3301 28.1172C44.5488 28.1172 43.9629 27.9316 43.5723 27.5605C43.1855 27.1895 42.9922 26.5957 42.9922 25.7793V21.5781H43.9766ZM51.4062 28H50.4336V18.8828H51.4062V28ZM54.4414 28H53.4688V18.8828H54.4414V28ZM60.4531 28L60.2598 27.0859H60.2129C59.8926 27.4883 59.5723 27.7617 59.252 27.9062C58.9355 28.0469 58.5391 28.1172 58.0625 28.1172C57.4258 28.1172 56.9258 27.9531 56.5625 27.625C56.2031 27.2969 56.0234 26.8301 56.0234 26.2246C56.0234 24.9277 57.0605 24.248 59.1348 24.1855L60.2246 24.1504V23.752C60.2246 23.248 60.1152 22.877 59.8965 22.6387C59.6816 22.3965 59.3359 22.2754 58.8594 22.2754C58.3242 22.2754 57.7188 22.4395 57.043 22.7676L56.7441 22.0234C57.0605 21.8516 57.4062 21.7168 57.7812 21.6191C58.1602 21.5215 58.5391 21.4727 58.918 21.4727C59.6836 21.4727 60.25 21.6426 60.6172 21.9824C60.9883 22.3223 61.1738 22.8672 61.1738 23.6172V28H60.4531ZM58.2559 27.3145C58.8613 27.3145 59.3359 27.1484 59.6797 26.8164C60.0273 26.4844 60.2012 26.0195 60.2012 25.4219V24.8418L59.2285 24.8828C58.4551 24.9102 57.8965 25.0312 57.5527 25.2461C57.2129 25.457 57.043 25.7871 57.043 26.2363C57.043 26.5879 57.1484 26.8555 57.3594 27.0391C57.5742 27.2227 57.873 27.3145 58.2559 27.3145ZM71.3691 28V23.8223C71.3691 23.3105 71.2598 22.9277 71.041 22.6738C70.8223 22.416 70.4824 22.2871 70.0215 22.2871C69.416 22.2871 68.9688 22.4609 68.6797 22.8086C68.3906 23.1562 68.2461 23.6914 68.2461 24.4141V28H67.2734V23.8223C67.2734 23.3105 67.1641 22.9277 66.9453 22.6738C66.7266 22.416 66.3848 22.2871 65.9199 22.2871C65.3105 22.2871 64.8633 22.4707 64.5781 22.8379C64.2969 23.2012 64.1562 23.7988 64.1562 24.6309V28H63.1836V21.5781H63.9746L64.1328 22.457H64.1797C64.3633 22.1445 64.6211 21.9004 64.9531 21.7246C65.2891 21.5488 65.6641 21.4609 66.0781 21.4609C67.082 21.4609 67.7383 21.8242 68.0469 22.5508H68.0938C68.2852 22.2148 68.5625 21.9492 68.9258 21.7539C69.2891 21.5586 69.7031 21.4609 70.168 21.4609C70.8945 21.4609 71.4375 21.6484 71.7969 22.0234C72.1602 22.3945 72.3418 22.9902 72.3418 23.8105V28H71.3691ZM76.918 28.1172C75.9883 28.1172 75.2676 27.832 74.7559 27.2617C74.248 26.6875 73.9941 25.877 73.9941 24.8301C73.9941 23.7559 74.252 22.9258 74.7676 22.3398C75.2871 21.7539 76.0254 21.4609 76.9824 21.4609C77.291 21.4609 77.5996 21.4941 77.9082 21.5605C78.2168 21.627 78.459 21.7051 78.6348 21.7949L78.3359 22.6211C78.1211 22.5352 77.8867 22.4648 77.6328 22.4102C77.3789 22.3516 77.1543 22.3223 76.959 22.3223C75.6543 22.3223 75.002 23.1543 75.002 24.8184C75.002 25.6074 75.1602 26.2129 75.4766 26.6348C75.7969 27.0566 76.2695 27.2676 76.8945 27.2676C77.4297 27.2676 77.9785 27.1523 78.541 26.9219V27.7832C78.1113 28.0059 77.5703 28.1172 76.918 28.1172ZM85.6133 24.7832C85.6133 25.8301 85.3496 26.6484 84.8223 27.2383C84.2949 27.8242 83.5664 28.1172 82.6367 28.1172C82.0625 28.1172 81.5527 27.9824 81.1074 27.7129C80.6621 27.4434 80.3184 27.0566 80.0762 26.5527C79.834 26.0488 79.7129 25.459 79.7129 24.7832C79.7129 23.7363 79.9746 22.9219 80.498 22.3398C81.0215 21.7539 81.748 21.4609 82.6777 21.4609C83.5762 21.4609 84.2891 21.7598 84.8164 22.3574C85.3477 22.9551 85.6133 23.7637 85.6133 24.7832ZM80.7207 24.7832C80.7207 25.6035 80.8848 26.2285 81.2129 26.6582C81.541 27.0879 82.0234 27.3027 82.6602 27.3027C83.2969 27.3027 83.7793 27.0898 84.1074 26.6641C84.4395 26.2344 84.6055 25.6074 84.6055 24.7832C84.6055 23.9668 84.4395 23.3477 84.1074 22.9258C83.7793 22.5 83.293 22.2871 82.6484 22.2871C82.0117 22.2871 81.5312 22.4961 81.207 22.9141C80.8828 23.332 80.7207 23.9551 80.7207 24.7832ZM90.2539 21.4609C90.5391 21.4609 90.7949 21.4844 91.0215 21.5312L90.8867 22.4336C90.6211 22.375 90.3867 22.3457 90.1836 22.3457C89.6641 22.3457 89.2188 22.5566 88.8477 22.9785C88.4805 23.4004 88.2969 23.9258 88.2969 24.5547V28H87.3242V21.5781H88.127L88.2383 22.7676H88.2852C88.5234 22.3496 88.8105 22.0273 89.1465 21.8008C89.4824 21.5742 89.8516 21.4609 90.2539 21.4609ZM95.2109 28.1172C94.793 28.1172 94.4102 28.041 94.0625 27.8887C93.7188 27.7324 93.4297 27.4941 93.1953 27.1738H93.125C93.1719 27.5488 93.1953 27.9043 93.1953 28.2402V30.8828H92.2227V21.5781H93.0137L93.1484 22.457H93.1953C93.4453 22.1055 93.7363 21.8516 94.0684 21.6953C94.4004 21.5391 94.7812 21.4609 95.2109 21.4609C96.0625 21.4609 96.7188 21.752 97.1797 22.334C97.6445 22.916 97.877 23.7324 97.877 24.7832C97.877 25.8379 97.6406 26.6582 97.168 27.2441C96.6992 27.8262 96.0469 28.1172 95.2109 28.1172ZM95.0703 22.2871C94.4141 22.2871 93.9395 22.4688 93.6465 22.832C93.3535 23.1953 93.2031 23.7734 93.1953 24.5664V24.7832C93.1953 25.6855 93.3457 26.332 93.6465 26.7227C93.9473 27.1094 94.4297 27.3027 95.0938 27.3027C95.6484 27.3027 96.082 27.0781 96.3945 26.6289C96.7109 26.1797 96.8691 25.5605 96.8691 24.7715C96.8691 23.9707 96.7109 23.3574 96.3945 22.9316C96.082 22.502 95.6406 22.2871 95.0703 22.2871ZM102.295 28.1172C101.346 28.1172 100.596 27.8281 100.045 27.25C99.498 26.6719 99.2246 25.8691 99.2246 24.8418C99.2246 23.8066 99.4785 22.9844 99.9863 22.375C100.498 21.7656 101.184 21.4609 102.043 21.4609C102.848 21.4609 103.484 21.7266 103.953 22.2578C104.422 22.7852 104.656 23.4824 104.656 24.3496V24.9648H100.232C100.252 25.7188 100.441 26.291 100.801 26.6816C101.164 27.0723 101.674 27.2676 102.33 27.2676C103.021 27.2676 103.705 27.123 104.381 26.834V27.7012C104.037 27.8496 103.711 27.9551 103.402 28.0176C103.098 28.084 102.729 28.1172 102.295 28.1172ZM102.031 22.2754C101.516 22.2754 101.104 22.4434 100.795 22.7793C100.49 23.1152 100.311 23.5801 100.256 24.1738H103.613C103.613 23.5605 103.477 23.0918 103.203 22.7676C102.93 22.4395 102.539 22.2754 102.031 22.2754ZM109.25 21.4609C109.535 21.4609 109.791 21.4844 110.018 21.5312L109.883 22.4336C109.617 22.375 109.383 22.3457 109.18 22.3457C108.66 22.3457 108.215 22.5566 107.844 22.9785C107.477 23.4004 107.293 23.9258 107.293 24.5547V28H106.32V21.5781H107.123L107.234 22.7676H107.281C107.52 22.3496 107.807 22.0273 108.143 21.8008C108.479 21.5742 108.848 21.4609 109.25 21.4609ZM118.73 28V23.8457C118.73 23.3223 118.611 22.9316 118.373 22.6738C118.135 22.416 117.762 22.2871 117.254 22.2871C116.582 22.2871 116.09 22.4688 115.777 22.832C115.465 23.1953 115.309 23.7949 115.309 24.6309V28H114.336V21.5781H115.127L115.285 22.457H115.332C115.531 22.1406 115.811 21.8965 116.17 21.7246C116.529 21.5488 116.93 21.4609 117.371 21.4609C118.145 21.4609 118.727 21.6484 119.117 22.0234C119.508 22.3945 119.703 22.9902 119.703 23.8105V28H118.73ZM124.42 28.1172C123.471 28.1172 122.721 27.8281 122.17 27.25C121.623 26.6719 121.35 25.8691 121.35 24.8418C121.35 23.8066 121.604 22.9844 122.111 22.375C122.623 21.7656 123.309 21.4609 124.168 21.4609C124.973 21.4609 125.609 21.7266 126.078 22.2578C126.547 22.7852 126.781 23.4824 126.781 24.3496V24.9648H122.357C122.377 25.7188 122.566 26.291 122.926 26.6816C123.289 27.0723 123.799 27.2676 124.455 27.2676C125.146 27.2676 125.83 27.123 126.506 26.834V27.7012C126.162 27.8496 125.836 27.9551 125.527 28.0176C125.223 28.084 124.854 28.1172 124.42 28.1172ZM124.156 22.2754C123.641 22.2754 123.229 22.4434 122.92 22.7793C122.615 23.1152 122.436 23.5801 122.381 24.1738H125.738C125.738 23.5605 125.602 23.0918 125.328 22.7676C125.055 22.4395 124.664 22.2754 124.156 22.2754ZM130.871 27.3027C131.52 27.3027 131.992 27.1289 132.289 26.7812C132.586 26.4336 132.744 25.8477 132.764 25.0234V24.8066C132.764 23.9082 132.611 23.2617 132.307 22.8672C132.002 22.4727 131.52 22.2754 130.859 22.2754C130.289 22.2754 129.852 22.498 129.547 22.9434C129.246 23.3848 129.096 24.0098 129.096 24.8184C129.096 25.627 129.244 26.2441 129.541 26.6699C129.842 27.0918 130.285 27.3027 130.871 27.3027ZM130.725 28.1172C129.896 28.1172 129.25 27.8262 128.785 27.2441C128.32 26.6621 128.088 25.8496 128.088 24.8066C128.088 23.7559 128.322 22.9355 128.791 22.3457C129.26 21.7559 129.912 21.4609 130.748 21.4609C131.627 21.4609 132.303 21.793 132.775 22.457H132.828L132.969 21.5781H133.736V30.8828H132.764V28.1348C132.764 27.7441 132.785 27.4121 132.828 27.1387H132.752C132.303 27.791 131.627 28.1172 130.725 28.1172ZM136.719 21.5781V25.7441C136.719 26.2676 136.838 26.6582 137.076 26.916C137.314 27.1738 137.688 27.3027 138.195 27.3027C138.867 27.3027 139.357 27.1191 139.666 26.752C139.979 26.3848 140.135 25.7852 140.135 24.9531V21.5781H141.107V28H140.305L140.164 27.1387H140.111C139.912 27.4551 139.635 27.6973 139.279 27.8652C138.928 28.0332 138.525 28.1172 138.072 28.1172C137.291 28.1172 136.705 27.9316 136.314 27.5605C135.928 27.1895 135.734 26.5957 135.734 25.7793V21.5781H136.719ZM145.889 28.1172C144.939 28.1172 144.189 27.8281 143.639 27.25C143.092 26.6719 142.818 25.8691 142.818 24.8418C142.818 23.8066 143.072 22.9844 143.58 22.375C144.092 21.7656 144.777 21.4609 145.637 21.4609C146.441 21.4609 147.078 21.7266 147.547 22.2578C148.016 22.7852 148.25 23.4824 148.25 24.3496V24.9648H143.826C143.846 25.7188 144.035 26.291 144.395 26.6816C144.758 27.0723 145.268 27.2676 145.924 27.2676C146.615 27.2676 147.299 27.123 147.975 26.834V27.7012C147.631 27.8496 147.305 27.9551 146.996 28.0176C146.691 28.084 146.322 28.1172 145.889 28.1172ZM145.625 22.2754C145.109 22.2754 144.697 22.4434 144.389 22.7793C144.084 23.1152 143.904 23.5801 143.85 24.1738H147.207C147.207 23.5605 147.07 23.0918 146.797 22.7676C146.523 22.4395 146.133 22.2754 145.625 22.2754ZM155.744 28.1172C154.795 28.1172 154.045 27.8281 153.494 27.25C152.947 26.6719 152.674 25.8691 152.674 24.8418C152.674 23.8066 152.928 22.9844 153.436 22.375C153.947 21.7656 154.633 21.4609 155.492 21.4609C156.297 21.4609 156.934 21.7266 157.402 22.2578C157.871 22.7852 158.105 23.4824 158.105 24.3496V24.9648H153.682C153.701 25.7188 153.891 26.291 154.25 26.6816C154.613 27.0723 155.123 27.2676 155.779 27.2676C156.471 27.2676 157.154 27.123 157.83 26.834V27.7012C157.486 27.8496 157.16 27.9551 156.852 28.0176C156.547 28.084 156.178 28.1172 155.744 28.1172ZM155.48 22.2754C154.965 22.2754 154.553 22.4434 154.244 22.7793C153.939 23.1152 153.76 23.5801 153.705 24.1738H157.062C157.062 23.5605 156.926 23.0918 156.652 22.7676C156.379 22.4395 155.988 22.2754 155.48 22.2754ZM160.684 21.5781V25.7441C160.684 26.2676 160.803 26.6582 161.041 26.916C161.279 27.1738 161.652 27.3027 162.16 27.3027C162.832 27.3027 163.322 27.1191 163.631 26.752C163.943 26.3848 164.1 25.7852 164.1 24.9531V21.5781H165.072V28H164.27L164.129 27.1387H164.076C163.877 27.4551 163.6 27.6973 163.244 27.8652C162.893 28.0332 162.49 28.1172 162.037 28.1172C161.256 28.1172 160.67 27.9316 160.279 27.5605C159.893 27.1895 159.699 26.5957 159.699 25.7793V21.5781H160.684ZM173.246 28.1172C172.828 28.1172 172.445 28.041 172.098 27.8887C171.754 27.7324 171.465 27.4941 171.23 27.1738H171.16C171.207 27.5488 171.23 27.9043 171.23 28.2402V30.8828H170.258V21.5781H171.049L171.184 22.457H171.23C171.48 22.1055 171.771 21.8516 172.104 21.6953C172.436 21.5391 172.816 21.4609 173.246 21.4609C174.098 21.4609 174.754 21.752 175.215 22.334C175.68 22.916 175.912 23.7324 175.912 24.7832C175.912 25.8379 175.676 26.6582 175.203 27.2441C174.734 27.8262 174.082 28.1172 173.246 28.1172ZM173.105 22.2871C172.449 22.2871 171.975 22.4688 171.682 22.832C171.389 23.1953 171.238 23.7734 171.23 24.5664V24.7832C171.23 25.6855 171.381 26.332 171.682 26.7227C171.982 27.1094 172.465 27.3027 173.129 27.3027C173.684 27.3027 174.117 27.0781 174.43 26.6289C174.746 26.1797 174.904 25.5605 174.904 24.7715C174.904 23.9707 174.746 23.3574 174.43 22.9316C174.117 22.502 173.676 22.2871 173.105 22.2871ZM178.531 21.5781V25.7441C178.531 26.2676 178.65 26.6582 178.889 26.916C179.127 27.1738 179.5 27.3027 180.008 27.3027C180.68 27.3027 181.17 27.1191 181.479 26.752C181.791 26.3848 181.947 25.7852 181.947 24.9531V21.5781H182.92V28H182.117L181.977 27.1387H181.924C181.725 27.4551 181.447 27.6973 181.092 27.8652C180.74 28.0332 180.338 28.1172 179.885 28.1172C179.104 28.1172 178.518 27.9316 178.127 27.5605C177.74 27.1895 177.547 26.5957 177.547 25.7793V21.5781H178.531ZM187.918 21.4609C188.203 21.4609 188.459 21.4844 188.686 21.5312L188.551 22.4336C188.285 22.375 188.051 22.3457 187.848 22.3457C187.328 22.3457 186.883 22.5566 186.512 22.9785C186.145 23.4004 185.961 23.9258 185.961 24.5547V28H184.988V21.5781H185.791L185.902 22.7676H185.949C186.188 22.3496 186.475 22.0273 186.811 21.8008C187.146 21.5742 187.516 21.4609 187.918 21.4609ZM190.801 21.5781V25.7441C190.801 26.2676 190.92 26.6582 191.158 26.916C191.396 27.1738 191.77 27.3027 192.277 27.3027C192.949 27.3027 193.439 27.1191 193.748 26.752C194.061 26.3848 194.217 25.7852 194.217 24.9531V21.5781H195.189V28H194.387L194.246 27.1387H194.193C193.994 27.4551 193.717 27.6973 193.361 27.8652C193.01 28.0332 192.607 28.1172 192.154 28.1172C191.373 28.1172 190.787 27.9316 190.396 27.5605C190.01 27.1895 189.816 26.5957 189.816 25.7793V21.5781H190.801ZM201.4 26.248C201.4 26.8457 201.178 27.3066 200.732 27.6309C200.287 27.9551 199.662 28.1172 198.857 28.1172C198.006 28.1172 197.342 27.9824 196.865 27.7129V26.8105C197.174 26.9668 197.504 27.0898 197.855 27.1797C198.211 27.2695 198.553 27.3145 198.881 27.3145C199.389 27.3145 199.779 27.2344 200.053 27.0742C200.326 26.9102 200.463 26.6621 200.463 26.3301C200.463 26.0801 200.354 25.8672 200.135 25.6914C199.92 25.5117 199.498 25.3008 198.869 25.0586C198.271 24.8359 197.846 24.6426 197.592 24.4785C197.342 24.3105 197.154 24.1211 197.029 23.9102C196.908 23.6992 196.848 23.4473 196.848 23.1543C196.848 22.6309 197.061 22.2188 197.486 21.918C197.912 21.6133 198.496 21.4609 199.238 21.4609C199.93 21.4609 200.605 21.6016 201.266 21.8828L200.92 22.6738C200.275 22.4082 199.691 22.2754 199.168 22.2754C198.707 22.2754 198.359 22.3477 198.125 22.4922C197.891 22.6367 197.773 22.8359 197.773 23.0898C197.773 23.2617 197.816 23.4082 197.902 23.5293C197.992 23.6504 198.135 23.7656 198.33 23.875C198.525 23.9844 198.9 24.1426 199.455 24.3496C200.217 24.627 200.73 24.9062 200.996 25.1875C201.266 25.4688 201.4 25.8223 201.4 26.248ZM208.818 28.1172C207.869 28.1172 207.119 27.8281 206.568 27.25C206.021 26.6719 205.748 25.8691 205.748 24.8418C205.748 23.8066 206.002 22.9844 206.51 22.375C207.021 21.7656 207.707 21.4609 208.566 21.4609C209.371 21.4609 210.008 21.7266 210.477 22.2578C210.945 22.7852 211.18 23.4824 211.18 24.3496V24.9648H206.756C206.775 25.7188 206.965 26.291 207.324 26.6816C207.688 27.0723 208.197 27.2676 208.854 27.2676C209.545 27.2676 210.229 27.123 210.904 26.834V27.7012C210.561 27.8496 210.234 27.9551 209.926 28.0176C209.621 28.084 209.252 28.1172 208.818 28.1172ZM208.555 22.2754C208.039 22.2754 207.627 22.4434 207.318 22.7793C207.014 23.1152 206.834 23.5801 206.779 24.1738H210.137C210.137 23.5605 210 23.0918 209.727 22.7676C209.453 22.4395 209.062 22.2754 208.555 22.2754ZM213.758 21.5781V25.7441C213.758 26.2676 213.877 26.6582 214.115 26.916C214.354 27.1738 214.727 27.3027 215.234 27.3027C215.906 27.3027 216.396 27.1191 216.705 26.752C217.018 26.3848 217.174 25.7852 217.174 24.9531V21.5781H218.146V28H217.344L217.203 27.1387H217.15C216.951 27.4551 216.674 27.6973 216.318 27.8652C215.967 28.0332 215.564 28.1172 215.111 28.1172C214.33 28.1172 213.744 27.9316 213.354 27.5605C212.967 27.1895 212.773 26.5957 212.773 25.7793V21.5781H213.758ZM221.188 28H220.215V21.5781H221.188V28ZM220.133 19.8379C220.133 19.6152 220.188 19.4531 220.297 19.3516C220.406 19.2461 220.543 19.1934 220.707 19.1934C220.863 19.1934 220.998 19.2461 221.111 19.3516C221.225 19.457 221.281 19.6191 221.281 19.8379C221.281 20.0566 221.225 20.2207 221.111 20.3301C220.998 20.4355 220.863 20.4883 220.707 20.4883C220.543 20.4883 220.406 20.4355 220.297 20.3301C220.188 20.2207 220.133 20.0566 220.133 19.8379ZM227.393 26.248C227.393 26.8457 227.17 27.3066 226.725 27.6309C226.279 27.9551 225.654 28.1172 224.85 28.1172C223.998 28.1172 223.334 27.9824 222.857 27.7129V26.8105C223.166 26.9668 223.496 27.0898 223.848 27.1797C224.203 27.2695 224.545 27.3145 224.873 27.3145C225.381 27.3145 225.771 27.2344 226.045 27.0742C226.318 26.9102 226.455 26.6621 226.455 26.3301C226.455 26.0801 226.346 25.8672 226.127 25.6914C225.912 25.5117 225.49 25.3008 224.861 25.0586C224.264 24.8359 223.838 24.6426 223.584 24.4785C223.334 24.3105 223.146 24.1211 223.021 23.9102C222.9 23.6992 222.84 23.4473 222.84 23.1543C222.84 22.6309 223.053 22.2188 223.479 21.918C223.904 21.6133 224.488 21.4609 225.23 21.4609C225.922 21.4609 226.598 21.6016 227.258 21.8828L226.912 22.6738C226.268 22.4082 225.684 22.2754 225.16 22.2754C224.699 22.2754 224.352 22.3477 224.117 22.4922C223.883 22.6367 223.766 22.8359 223.766 23.0898C223.766 23.2617 223.809 23.4082 223.895 23.5293C223.984 23.6504 224.127 23.7656 224.322 23.875C224.518 23.9844 224.893 24.1426 225.447 24.3496C226.209 24.627 226.723 24.9062 226.988 25.1875C227.258 25.4688 227.393 25.8223 227.393 26.248ZM237.166 28V23.8223C237.166 23.3105 237.057 22.9277 236.838 22.6738C236.619 22.416 236.279 22.2871 235.818 22.2871C235.213 22.2871 234.766 22.4609 234.477 22.8086C234.188 23.1562 234.043 23.6914 234.043 24.4141V28H233.07V23.8223C233.07 23.3105 232.961 22.9277 232.742 22.6738C232.523 22.416 232.182 22.2871 231.717 22.2871C231.107 22.2871 230.66 22.4707 230.375 22.8379C230.094 23.2012 229.953 23.7988 229.953 24.6309V28H228.98V21.5781H229.771L229.93 22.457H229.977C230.16 22.1445 230.418 21.9004 230.75 21.7246C231.086 21.5488 231.461 21.4609 231.875 21.4609C232.879 21.4609 233.535 21.8242 233.844 22.5508H233.891C234.082 22.2148 234.359 21.9492 234.723 21.7539C235.086 21.5586 235.5 21.4609 235.965 21.4609C236.691 21.4609 237.234 21.6484 237.594 22.0234C237.957 22.3945 238.139 22.9902 238.139 23.8105V28H237.166ZM245.691 24.7832C245.691 25.8301 245.428 26.6484 244.9 27.2383C244.373 27.8242 243.645 28.1172 242.715 28.1172C242.141 28.1172 241.631 27.9824 241.186 27.7129C240.74 27.4434 240.396 27.0566 240.154 26.5527C239.912 26.0488 239.791 25.459 239.791 24.7832C239.791 23.7363 240.053 22.9219 240.576 22.3398C241.1 21.7539 241.826 21.4609 242.756 21.4609C243.654 21.4609 244.367 21.7598 244.895 22.3574C245.426 22.9551 245.691 23.7637 245.691 24.7832ZM240.799 24.7832C240.799 25.6035 240.963 26.2285 241.291 26.6582C241.619 27.0879 242.102 27.3027 242.738 27.3027C243.375 27.3027 243.857 27.0898 244.186 26.6641C244.518 26.2344 244.684 25.6074 244.684 24.7832C244.684 23.9668 244.518 23.3477 244.186 22.9258C243.857 22.5 243.371 22.2871 242.727 22.2871C242.09 22.2871 241.609 22.4961 241.285 22.9141C240.961 23.332 240.799 23.9551 240.799 24.7832ZM251.773 27.1387H251.721C251.271 27.791 250.6 28.1172 249.705 28.1172C248.865 28.1172 248.211 27.8301 247.742 27.2559C247.277 26.6816 247.045 25.8652 247.045 24.8066C247.045 23.748 247.279 22.9258 247.748 22.3398C248.217 21.7539 248.869 21.4609 249.705 21.4609C250.576 21.4609 251.244 21.7773 251.709 22.4102H251.785L251.744 21.9473L251.721 21.4961V18.8828H252.693V28H251.902L251.773 27.1387ZM249.828 27.3027C250.492 27.3027 250.973 27.123 251.27 26.7637C251.57 26.4004 251.721 25.8164 251.721 25.0117V24.8066C251.721 23.8965 251.568 23.248 251.264 22.8613C250.963 22.4707 250.48 22.2754 249.816 22.2754C249.246 22.2754 248.809 22.498 248.504 22.9434C248.203 23.3848 248.053 24.0098 248.053 24.8184C248.053 25.6387 248.203 26.2578 248.504 26.6758C248.805 27.0938 249.246 27.3027 249.828 27.3027Z" fill="#333333" fill-opacity="0.5"/>
</svg>
