<svg width="200" height="60" viewBox="0 0 200 60" fill="none" xmlns="http://www.w3.org/2000/svg">
<rect x="0.5" y="0.5" width="199" height="59" rx="4.5" stroke="white" stroke-opacity="0.5"/>
<path d="M79.3867 33H74.4531V24.4336H79.3867V25.9219H76.2695V27.8027H79.1699V29.291H76.2695V31.5H79.3867V33ZM88.1055 33H86.0312L84.0391 29.7598L82.0469 33H80.1016L82.9434 28.582L80.2832 24.4336H82.2871L84.1328 27.5156L85.9434 24.4336H87.9004L85.2109 28.6816L88.1055 33ZM91 28.4648H91.5977C92.1562 28.4648 92.5742 28.3555 92.8516 28.1367C93.1289 27.9141 93.2676 27.5918 93.2676 27.1699C93.2676 26.7441 93.1504 26.4297 92.916 26.2266C92.6855 26.0234 92.3223 25.9219 91.8262 25.9219H91V28.4648ZM95.1016 27.1055C95.1016 28.0273 94.8125 28.7324 94.2344 29.2207C93.6602 29.709 92.8418 29.9531 91.7793 29.9531H91V33H89.1836V24.4336H91.9199C92.959 24.4336 93.748 24.6582 94.2871 25.1074C94.8301 25.5527 95.1016 26.2188 95.1016 27.1055ZM96.7188 33V24.4336H98.5352V31.5H102.01V33H96.7188ZM111.279 28.7051C111.279 30.123 110.928 31.2129 110.225 31.9746C109.521 32.7363 108.514 33.1172 107.201 33.1172C105.889 33.1172 104.881 32.7363 104.178 31.9746C103.475 31.2129 103.123 30.1191 103.123 28.6934C103.123 27.2676 103.475 26.1797 104.178 25.4297C104.885 24.6758 105.896 24.2988 107.213 24.2988C108.529 24.2988 109.535 24.6777 110.23 25.4355C110.93 26.1934 111.279 27.2832 111.279 28.7051ZM105.027 28.7051C105.027 29.6621 105.209 30.3828 105.572 30.8672C105.936 31.3516 106.479 31.5938 107.201 31.5938C108.65 31.5938 109.375 30.6309 109.375 28.7051C109.375 26.7754 108.654 25.8105 107.213 25.8105C106.49 25.8105 105.945 26.0547 105.578 26.543C105.211 27.0273 105.027 27.748 105.027 28.7051ZM114.871 28.2363H115.457C116.031 28.2363 116.455 28.1406 116.729 27.9492C117.002 27.7578 117.139 27.457 117.139 27.0469C117.139 26.6406 116.998 26.3516 116.717 26.1797C116.439 26.0078 116.008 25.9219 115.422 25.9219H114.871V28.2363ZM114.871 29.7129V33H113.055V24.4336H115.551C116.715 24.4336 117.576 24.6465 118.135 25.0723C118.693 25.4941 118.973 26.1367 118.973 27C118.973 27.5039 118.834 27.9531 118.557 28.3477C118.279 28.7383 117.887 29.0449 117.379 29.2676C118.668 31.1934 119.508 32.4375 119.898 33H117.883L115.838 29.7129H114.871ZM125.91 33H120.977V24.4336H125.91V25.9219H122.793V27.8027H125.693V29.291H122.793V31.5H125.91V33Z" fill="white"/>
</svg>
