<svg width="200" height="60" viewBox="0 0 200 60" fill="none" xmlns="http://www.w3.org/2000/svg">
<rect width="200" height="60" rx="5" fill="#E8C300"/>
<path d="M63.5488 26.4336H66.2148C67.4297 26.4336 68.3105 26.6074 68.8574 26.9551C69.4082 27.2988 69.6836 27.8477 69.6836 28.6016C69.6836 29.1133 69.5625 29.5332 69.3203 29.8613C69.082 30.1895 68.7637 30.3867 68.3652 30.4531V30.5117C68.9082 30.6328 69.2988 30.8594 69.5371 31.1914C69.7793 31.5234 69.9004 31.9648 69.9004 32.5156C69.9004 33.2969 69.6172 33.9062 69.0508 34.3438C68.4883 34.7812 67.7227 35 66.7539 35H63.5488V26.4336ZM65.3652 29.8262H66.4199C66.9121 29.8262 67.2676 29.75 67.4863 29.5977C67.709 29.4453 67.8203 29.1934 67.8203 28.8418C67.8203 28.5137 67.6992 28.2793 67.457 28.1387C67.2188 27.9941 66.8398 27.9219 66.3203 27.9219H65.3652V29.8262ZM65.3652 31.2676V33.5H66.5488C67.0488 33.5 67.418 33.4043 67.6562 33.2129C67.8945 33.0215 68.0137 32.7285 68.0137 32.334C68.0137 31.623 67.5059 31.2676 66.4902 31.2676H65.3652ZM79.3867 30.7051C79.3867 32.123 79.0352 33.2129 78.332 33.9746C77.6289 34.7363 76.6211 35.1172 75.3086 35.1172C73.9961 35.1172 72.9883 34.7363 72.2852 33.9746C71.582 33.2129 71.2305 32.1191 71.2305 30.6934C71.2305 29.2676 71.582 28.1797 72.2852 27.4297C72.9922 26.6758 74.0039 26.2988 75.3203 26.2988C76.6367 26.2988 77.6426 26.6777 78.3379 27.4355C79.0371 28.1934 79.3867 29.2832 79.3867 30.7051ZM73.1348 30.7051C73.1348 31.6621 73.3164 32.3828 73.6797 32.8672C74.043 33.3516 74.5859 33.5938 75.3086 33.5938C76.7578 33.5938 77.4824 32.6309 77.4824 30.7051C77.4824 28.7754 76.7617 27.8105 75.3203 27.8105C74.5977 27.8105 74.0527 28.0547 73.6855 28.543C73.3184 29.0273 73.1348 29.748 73.1348 30.7051ZM88.9375 30.7051C88.9375 32.123 88.5859 33.2129 87.8828 33.9746C87.1797 34.7363 86.1719 35.1172 84.8594 35.1172C83.5469 35.1172 82.5391 34.7363 81.8359 33.9746C81.1328 33.2129 80.7812 32.1191 80.7812 30.6934C80.7812 29.2676 81.1328 28.1797 81.8359 27.4297C82.543 26.6758 83.5547 26.2988 84.8711 26.2988C86.1875 26.2988 87.1934 26.6777 87.8887 27.4355C88.5879 28.1934 88.9375 29.2832 88.9375 30.7051ZM82.6855 30.7051C82.6855 31.6621 82.8672 32.3828 83.2305 32.8672C83.5938 33.3516 84.1367 33.5938 84.8594 33.5938C86.3086 33.5938 87.0332 32.6309 87.0332 30.7051C87.0332 28.7754 86.3125 27.8105 84.8711 27.8105C84.1484 27.8105 83.6035 28.0547 83.2363 28.543C82.8691 29.0273 82.6855 29.748 82.6855 30.7051ZM97.6035 35H95.541L93.2969 31.3906L92.5293 31.9414V35H90.7129V26.4336H92.5293V30.3535L93.2441 29.3457L95.5645 26.4336H97.5801L94.5918 30.2246L97.6035 35ZM105.104 35H103.287V27.9453H100.961V26.4336H107.43V27.9453H105.104V35ZM113.992 35L113.371 32.9609H110.248L109.627 35H107.67L110.693 26.3984H112.914L115.949 35H113.992ZM112.938 31.4375C112.363 29.5898 112.039 28.5449 111.965 28.3027C111.895 28.0605 111.844 27.8691 111.812 27.7285C111.684 28.2285 111.314 29.4648 110.705 31.4375H112.938ZM117.033 26.4336H119.699C120.914 26.4336 121.795 26.6074 122.342 26.9551C122.893 27.2988 123.168 27.8477 123.168 28.6016C123.168 29.1133 123.047 29.5332 122.805 29.8613C122.566 30.1895 122.248 30.3867 121.85 30.4531V30.5117C122.393 30.6328 122.783 30.8594 123.021 31.1914C123.264 31.5234 123.385 31.9648 123.385 32.5156C123.385 33.2969 123.102 33.9062 122.535 34.3438C121.973 34.7812 121.207 35 120.238 35H117.033V26.4336ZM118.85 29.8262H119.904C120.396 29.8262 120.752 29.75 120.971 29.5977C121.193 29.4453 121.305 29.1934 121.305 28.8418C121.305 28.5137 121.184 28.2793 120.941 28.1387C120.703 27.9941 120.324 27.9219 119.805 27.9219H118.85V29.8262ZM118.85 31.2676V33.5H120.033C120.533 33.5 120.902 33.4043 121.141 33.2129C121.379 33.0215 121.498 32.7285 121.498 32.334C121.498 31.623 120.99 31.2676 119.975 31.2676H118.85ZM125.096 35V26.4336H126.912V33.5H130.387V35H125.096ZM136.814 35H131.881V26.4336H136.814V27.9219H133.697V29.8027H136.598V31.291H133.697V33.5H136.814V35Z" fill="white"/>
</svg>
