<svg width="132" height="10" viewBox="0 0 132 10" fill="none" xmlns="http://www.w3.org/2000/svg">
<path d="M2.21289 4.23633H2.79883C3.37305 4.23633 3.79688 4.14062 4.07031 3.94922C4.34375 3.75781 4.48047 3.45703 4.48047 3.04687C4.48047 2.64062 4.33984 2.35156 4.05859 2.17969C3.78125 2.00781 3.34961 1.92187 2.76367 1.92187H2.21289V4.23633ZM2.21289 5.71289V9H0.396484V0.433594L2.89258 0.433594C4.05664 0.433594 4.91797 0.646484 5.47656 1.07227C6.03516 1.49414 6.31445 2.13672 6.31445 3C6.31445 3.50391 6.17578 3.95312 5.89844 4.34766C5.62109 4.73828 5.22852 5.04492 4.7207 5.26758C6.00977 7.19336 6.84961 8.4375 7.24023 9L5.22461 9L3.17969 5.71289H2.21289ZM19.252 9H14.3184V0.433594H19.252V1.92187H16.1348V3.80273H19.0352V5.29102H16.1348V7.5H19.252V9ZM32.1016 6.62109C32.1016 7.39453 31.8223 8.00391 31.2637 8.44922C30.709 8.89453 29.9355 9.11719 28.9434 9.11719C28.0293 9.11719 27.2207 8.94531 26.5176 8.60156V6.91406C27.0957 7.17187 27.584 7.35352 27.9824 7.45898C28.3848 7.56445 28.752 7.61719 29.084 7.61719C29.4824 7.61719 29.7871 7.54102 29.998 7.38867C30.2129 7.23633 30.3203 7.00977 30.3203 6.70898C30.3203 6.54102 30.2734 6.39258 30.1797 6.26367C30.0859 6.13086 29.9473 6.00391 29.7637 5.88281C29.584 5.76172 29.2148 5.56836 28.6562 5.30273C28.1328 5.05664 27.7402 4.82031 27.4785 4.59375C27.2168 4.36719 27.0078 4.10352 26.8516 3.80273C26.6953 3.50195 26.6172 3.15039 26.6172 2.74805C26.6172 1.99023 26.873 1.39453 27.3848 0.960937C27.9004 0.527344 28.6113 0.310547 29.5176 0.310547C29.9629 0.310547 30.3867 0.363281 30.7891 0.46875C31.1953 0.574219 31.6191 0.722656 32.0605 0.914062L31.4746 2.32617C31.0176 2.13867 30.6387 2.00781 30.3379 1.93359C30.041 1.85937 29.748 1.82227 29.459 1.82227C29.1152 1.82227 28.8516 1.90234 28.668 2.0625C28.4844 2.22266 28.3926 2.43164 28.3926 2.68945C28.3926 2.84961 28.4297 2.99023 28.5039 3.11133C28.5781 3.22852 28.6953 3.34375 28.8555 3.45703C29.0195 3.56641 29.4043 3.76562 30.0098 4.05469C30.8105 4.4375 31.3594 4.82227 31.6562 5.20898C31.9531 5.5918 32.1016 6.0625 32.1016 6.62109ZM42.959 9H41.1426V1.94531L38.8164 1.94531V0.433594L45.2852 0.433594V1.94531H42.959V9ZM57.8477 9L57.2266 6.96094H54.1035L53.4824 9H51.5254L54.5488 0.398437H56.7695L59.8047 9H57.8477ZM56.793 5.4375C56.2188 3.58984 55.8945 2.54492 55.8203 2.30273C55.75 2.06055 55.6992 1.86914 55.668 1.72852C55.5391 2.22852 55.1699 3.46484 54.5605 5.4375H56.793ZM73.8613 0.433594V5.97656C73.8613 6.60937 73.7188 7.16406 73.4336 7.64062C73.1523 8.11719 72.7441 8.48242 72.209 8.73633C71.6738 8.99023 71.041 9.11719 70.3105 9.11719C69.209 9.11719 68.3535 8.83594 67.7441 8.27344C67.1348 7.70703 66.8301 6.93359 66.8301 5.95312V0.433594H68.6406V5.67773C68.6406 6.33789 68.7734 6.82227 69.0391 7.13086C69.3047 7.43945 69.7441 7.59375 70.3574 7.59375C70.9512 7.59375 71.3809 7.43945 71.6465 7.13086C71.916 6.81836 72.0508 6.33008 72.0508 5.66602V0.433594H73.8613ZM83.7754 4.23633H84.3613C84.9355 4.23633 85.3594 4.14062 85.6328 3.94922C85.9062 3.75781 86.043 3.45703 86.043 3.04687C86.043 2.64062 85.9023 2.35156 85.6211 2.17969C85.3438 2.00781 84.9121 1.92187 84.3262 1.92187H83.7754V4.23633ZM83.7754 5.71289V9H81.959V0.433594H84.4551C85.6191 0.433594 86.4805 0.646484 87.0391 1.07227C87.5977 1.49414 87.877 2.13672 87.877 3C87.877 3.50391 87.7383 3.95312 87.4609 4.34766C87.1836 4.73828 86.791 5.04492 86.2832 5.26758C87.5723 7.19336 88.4121 8.4375 88.8027 9H86.7871L84.7422 5.71289H83.7754ZM101.125 9L100.504 6.96094H97.3809L96.7598 9H94.8027L97.8262 0.398437H100.047L103.082 9H101.125ZM100.07 5.4375C99.4961 3.58984 99.1719 2.54492 99.0977 2.30273C99.0273 2.06055 98.9766 1.86914 98.9453 1.72852C98.8164 2.22852 98.4473 3.46484 97.8379 5.4375H100.07ZM117.766 9H115.457L111.73 2.51953H111.678C111.752 3.66406 111.789 4.48047 111.789 4.96875V9H110.166V0.433594H112.457L116.178 6.84961H116.219C116.16 5.73633 116.131 4.94922 116.131 4.48828V0.433594H117.766V9ZM129.232 9H127.416V1.94531H125.09V0.433594L131.559 0.433594V1.94531L129.232 1.94531V9Z" fill="white"/>
</svg>
